<svg xmlns="http://www.w3.org/2000/svg" width="24" height="18" viewBox="0 0 24 18">
  <g fill="#31A4DE">
    <path d="M12.7058824,12 C15.9398427,12 19.3062896,14.1771277 21.6874035,18 L24,18 C21.2209672,12.8770292 16.8984449,10 12.7058824,10 C7.11951136,10 2.77212343,12.9151262 0,18 L2.31611558,18 C4.79114231,14.0583316 8.32422249,12 12.7058824,12 Z"/>
    <path d="M12.1538462,10 C14.3629852,10 16.1538462,8.209139 16.1538462,6 C16.1538462,3.790861 14.3629852,2 12.1538462,2 C9.94470715,2 8.15384615,3.790861 8.15384615,6 C8.15384615,8.209139 9.94470715,10 12.1538462,10 Z M12.1538462,12 C8.84013766,12 6.15384615,9.3137085 6.15384615,6 C6.15384615,2.6862915 8.84013766,0 12.1538462,0 C15.4675547,0 18.1538462,2.6862915 18.1538462,6 C18.1538462,9.3137085 15.4675547,12 12.1538462,12 Z"/>
  </g>
</svg>
