<svg xmlns="http://www.w3.org/2000/svg" width="20" height="9" viewBox="0 0 20 9">
  <g fill="#FFFFFF">
    <path d="M12.0278571 6.05631377C12.9240411 4.80975729 14.3731705 4 16.0083527 4 17.632815 4 19.0736557 4.79917479 19.9711514 6.03185346L18.6433825 6.03594214C17.9322908 5.37818028 17.0012775 5 16.0083527 5 15.0071012 5 14.0689084 5.38460617 13.3558046 6.05222453L12.0278571 6.05631377zM16 3.25C16.6903559 3.25 17.25 2.69035594 17.25 2 17.25 1.30964406 16.6903559.75 16 .75 15.3096441.75 14.75 1.30964406 14.75 2 14.75 2.69035594 15.3096441 3.25 16 3.25zM16 4C14.8954305 4 14 3.1045695 14 2 14 .8954305 14.8954305 0 16 0 17.1045695 0 18 .8954305 18 2 18 3.1045695 17.1045695 4 16 4z"/>
    <path d="M4.0452326,8.28460593 C5.50039849,6.29344735 7.85340131,5 10.508505,5 C13.1462021,5 15.4857465,6.27654363 16.9430421,8.24553481 L15.6501605,8.24945131 C14.3414009,6.83226368 12.4950107,6 10.508505,6 C8.5070394,6 6.64809204,6.84494479 5.33814054,8.28068935 L4.0452326,8.28460593 Z"/>
    <path d="M10.508505 5C11.6130745 5 12.508505 4.1045695 12.508505 3 12.508505 1.8954305 11.6130745 1 10.508505 1 9.40393546 1 8.50850496 1.8954305 8.50850496 3 8.50850496 4.1045695 9.40393546 5 10.508505 5zM10.508505 6C8.85165071 6 7.50850496 4.65685425 7.50850496 3 7.50850496 1.34314575 8.85165071 0 10.508505 0 12.1653592 0 13.508505 1.34314575 13.508505 3 13.508505 4.65685425 12.1653592 6 10.508505 6zM4.00835273 5C5.00127751 5 5.93229083 5.37818028 6.64338249 6.03594214L7.97115138 6.03185346C7.07365574 4.79917479 5.63281498 4 4.00835273 4 2.37317045 4 .924041143 4.80975729.0278571189 6.05631377L1.35580465 6.05222453C2.06890839 5.38460617 3.00710119 5 4.00835273 5zM4 3.25C4.69035594 3.25 5.25 2.69035594 5.25 2 5.25 1.30964406 4.69035594.75 4 .75 3.30964406.75 2.75 1.30964406 2.75 2 2.75 2.69035594 3.30964406 3.25 4 3.25zM4 4C2.8954305 4 2 3.1045695 2 2 2 .8954305 2.8954305 0 4 0 5.1045695 0 6 .8954305 6 2 6 3.1045695 5.1045695 4 4 4z"/>
  </g>
</svg>
